{"title":"Aashiqui 1990 Hindi nHD Bluray 720p x264 AC3 5.1...Hon3y","uid":7739118,"size":2014860280,"categoryP":"video","categoryS":"hd___movies","magnet":"?xt=urn:btih:0ae3d1f53239cfcf79a1bb1436df9f96ce7a3171&amp;dn=Aashiqui+1990+Hindi+nHD+Bluray+720p+x264+AC3+5.1...Hon3y&amp;tr=udp%3A%2F%2Ftracker.openbittorrent.com%3A80&amp;tr=udp%3A%2F%2Fopen.demonii.com%3A1337&amp;tr=udp%3A%2F%2Ftracker.coppersurfer.tk%3A6969&amp;tr=udp%3A%2F%2Fexodus.desync.com%3A6969","seeders":0,"leechers":1,"uploader":"honey8ee","files":11,"time":1350580842,"description":" &lt;a href=&quot;http://en.wikipedia.org/wiki/Aashiqui&quot; rel=&quot;nofollow&quot; target=&quot;_NEW&quot;&gt;http://en.wikipedia.org/wiki/Aashiqui&lt;/a&gt;\n &lt;a href=&quot;\nhttp://www.imdb.com/title/tt0149573/&quot; rel=&quot;nofollow&quot; target=&quot;_NEW&quot;&gt;\nhttp://www.imdb.com/title/tt0149573/&lt;/a&gt;\n\n\nFormat                                   : Matroska\nFormat version                           : Version 2\nFile size                                : 1.87 GiB\nDuration                                 : 2h 27mn\nOverall bit rate                         : 1 821 Kbps\n\nVideo\nID                                       : 1\nFormat                                   : AVC\nFormat/Info                              : Advanced Video Codec\nFormat profile                           : &lt;a class=&quot;__cf_email__&quot; href=&quot;/cdn-cgi/l/email-protection&quot; data-cfemail=&quot;367e5f515e767a021807&quot;&gt;[email&amp;#160;protected]&lt;/a&gt;&lt;script cf-hash='f9e31' type=&quot;text/javascript&quot;&gt;\n/* &lt;![CDATA[ */!function(){try{var t=&quot;currentScript&quot;in document?document.currentScript:function(){for(var t=document.getElementsByTagName(&quot;script&quot;),e=t.length;e--;)if(t[e].getAttribute(&quot;cf-hash&quot;))return t[e]}();if(t&amp;&amp;t.previousSibling){var e,r,n,i,c=t.previousSibling,a=c.getAttribute(&quot;data-cfemail&quot;);if(a){for(e=&quot;&quot;,r=parseInt(a.substr(0,2),16),n=2;a.length-n;n+=2)i=parseInt(a.substr(n,2),16)^r,e+=String.fromCharCode(i);e=document.createTextNode(e),c.parentNode.replaceChild(e,c)}}}catch(u){}}();/* ]]&gt; */&lt;/script&gt;\nFormat settings, CABAC                   : Yes\nFormat settings, ReFrames                : 4 frames\nMuxing mode                              : Header stripping\nCodec ID                                 : V_MPEG4/ISO/AVC\nDuration                                 : 2h 27mn\nBit rate                                 : 1 500 Kbps\nWidth                                    : 1 280 pixels\nHeight                                   : 544 pixels\nDisplay aspect ratio                     : 2.35:1\nOriginal display aspect ratio            : 2.35:1\nFrame rate                               : 24.000 fps\nColor space                              : YUV\nChroma subsampling                       : 4:2:0\nBit depth                                : 8 bits\nScan type                                : Progressive\nBits/(Pixel*Frame)                       : 0.090\nStream size                              : 1.50 GiB (80%)\n\nAudio\nID                                       : 2\nFormat                                   : AC-3\nBit rate mode                            : Constant\nBit rate                                 : 320 Kbps\nChannel(s)                               : 6 channels\nChannel positions                        : Front: L C R, Side: L R, LFE\nSampling rate                            : 48.0 KHz\nBit depth                                : 16 bits\nCompression mode                         : Lossy\nStream size                              : 337 MiB (18%)\n\n &lt;a href=&quot;\nhttp://www.shotpix.com/images/40471234113298797870.png&quot; rel=&quot;nofollow&quot; target=&quot;_NEW&quot;&gt;\nhttp://www.shotpix.com/images/40471234113298797870.png&lt;/a&gt; &lt;a href=&quot;\nhttp://www.shotpix.com/images/40759602359678674366.png&quot; rel=&quot;nofollow&quot; target=&quot;_NEW&quot;&gt;\nhttp://www.shotpix.com/images/40759602359678674366.png&lt;/a&gt; &lt;a href=&quot;\nhttp://www.shotpix.com/images/28085709213398482245.png&quot; rel=&quot;nofollow&quot; target=&quot;_NEW&quot;&gt;\nhttp://www.shotpix.com/images/28085709213398482245.png&lt;/a&gt; &lt;a href=&quot;\nhttp://www.shotpix.com/images/43775585864968764856.png&quot; rel=&quot;nofollow&quot; target=&quot;_NEW&quot;&gt;\nhttp://www.shotpix.com/images/43775585864968764856.png&lt;/a&gt; &lt;a href=&quot;\nhttp://www.shotpix.com/images/39791514698532315124.png&quot; rel=&quot;nofollow&quot; target=&quot;_NEW&quot;&gt;\nhttp://www.shotpix.com/images/39791514698532315124.png&lt;/a&gt; &lt;a href=&quot;\nhttp://www.shotpix.com/images/67756888078602629045.png&quot; rel=&quot;nofollow&quot; target=&quot;_NEW&quot;&gt;\nhttp://www.shotpix.com/images/67756888078602629045.png&lt;/a&gt; &lt;a href=&quot;\nhttp://www.shotpix.com/images/00024770024577439845.png&quot; rel=&quot;nofollow&quot; target=&quot;_NEW&quot;&gt;\nhttp://www.shotpix.com/images/00024770024577439845.png&lt;/a&gt; &lt;a href=&quot;\nhttp://www.shotpix.com/images/65193523454308017583.png&quot; rel=&quot;nofollow&quot; target=&quot;_NEW&quot;&gt;\nhttp://www.shotpix.com/images/65193523454308017583.png&lt;/a&gt; &lt;a href=&quot;\nhttp://www.shotpix.com/images/23809078528195880560.png&quot; rel=&quot;nofollow&quot; target=&quot;_NEW&quot;&gt;\nhttp://www.shotpix.com/images/23809078528195880560.png&lt;/a&gt; &lt;a href=&quot;\nhttp://www.shotpix.com/images/05265287310518625480.png&quot; rel=&quot;nofollow&quot; target=&quot;_NEW&quot;&gt;\nhttp://www.shotpix.com/images/05265287310518625480.png&lt;/a&gt;","torrent":{"xt":"urn:btih:0ae3d1f53239cfcf79a1bb1436df9f96ce7a3171","amp;dn":"Aashiqui+1990+Hindi+nHD+Bluray+720p+x264+AC3+5.1...Hon3y","amp;tr":["udp%3A%2F%2Ftracker.openbittorrent.com%3A80","udp%3A%2F%2Fopen.demonii.com%3A1337","udp%3A%2F%2Ftracker.coppersurfer.tk%3A6969","udp%3A%2F%2Fexodus.desync.com%3A6969"],"infoHash":"0ae3d1f53239cfcf79a1bb1436df9f96ce7a3171","infoHashBuffer":{"type":"Buffer","data":[10,227,209,245,50,57,207,207,121,161,187,20,54,223,159,150,206,122,49,113]},"announce":[],"urlList":[]}}